#!OML:ASF F:\VICON\USERDATA\INSTALL\rory3\rory3.ASF
:FULLY-SPECIFIED
:DEGREES
1969
root -1.67315 17.7379 5.1532 -184.678 202.35 -182.004
lowerback 11.8185 4.47591 4.84748
upperback 2.29078 6.51268 -0.0129412
thorax -3.64681 3.17306 -3.65306
lowerneck -14.6253 0.408015 -4.88448
upperneck 9.73651 0.628901 7.00809
head 5.28074 0.63183 3.05906
rclavicle 9.41257e-014 -7.66563e-015
rhumerus 62.5952 2.65465 -38.7578
rradius 92.4643
rwrist -7.35875
rhand -29.5217 14.4756
rfingers 7.12502
rthumb -2.85552 -15.485
lclavicle 9.41257e-014 -7.66563e-015
lhumerus 49.1089 -23.2974 6.42754
lradius 88.1208
lwrist -0.376793
lhand -10.803 8.16592
lfingers 7.12502
lthumb 15.2102 37.5868
rfemur 11.7187 10.5151 16.7362
rtibia 38.4915
rfoot -16.2438 2.81085
rtoes -22.3112
lfemur -34.3859 -11.6512 -4.43057
ltibia 43.5326
lfoot 9.9994 -0.248331
ltoes -15.3799
1970
root -1.6727 17.8541 5.10196 -184.331 202.519 -181.672
lowerback 11.5798 4.46444 4.59046
upperback 2.22451 6.44628 -0.260016
thorax -3.59097 3.14399 -3.74052
lowerneck -14.8375 0.376499 -4.92873
upperneck 9.8186 0.545359 7.42078
head 5.34616 0.623396 3.19448
rclavicle 6.47479e-014 2.98177e-016
rhumerus 63.4319 1.62522 -40.1795
rradius 89.3833
rwrist -7.89497
rhand -28.7939 14.2552
rfingers 7.12502
rthumb -2.15262 -15.7137
lclavicle 6.47479e-014 2.98177e-016
lhumerus 48.0996 -22.7876 7.74264
lradius 91.0297
lwrist -0.452206
lhand -11.2076 7.78634
lfingers 7.12502
lthumb 14.8205 37.2364
rfemur 11.3947 10.8042 16.181
rtibia 37.3967
rfoot -15.1068 3.53921
rtoes -19.9671
lfemur -34.1771 -11.3864 -4.63451
ltibia 42.2672
lfoot 10.9993 0.115765
ltoes -12.9238
1971
root -1.67224 17.956 5.04711 -184.051 202.694 -181.323
lowerback 11.4023 4.49036 4.25876
upperback 2.18512 6.42346 -0.511177
thorax -3.54416 3.13709 -3.80079
lowerneck -15.1925 0.346924 -4.88743
upperneck 10.0222 0.45651 7.74124
head 5.47463 0.61304 3.28986
rclavicle 4.39687e-014 -5.96354e-016
rhumerus 64.1127 0.746918 -41.1778
rradius 86.2274
rwrist -7.7791
rhand -28.2312 13.7132
rfingers 7.12502
rthumb -1.60918 -16.2605
lclavicle 4.39687e-014 -5.96354e-016
lhumerus 47.2911 -21.9147 9.14148
lradius 93.9569
lwrist -0.251201
lhand -12.0081 7.37624
lfingers 7.12502
lthumb 14.0492 36.8814
rfemur 11.0895 11.1632 15.682
rtibia 36.4233
rfoot -14.1567 3.897
rtoes -18.2768
lfemur -33.9691 -11.0064 -4.88061
ltibia 41.2323
lfoot 11.5489 -0.0697373
ltoes -10.9544
1972
root -1.67037 18.0413 4.98638 -183.648 202.886 -181.149
lowerback 11.2127 4.49703 3.97571
upperback 2.07357 6.38952 -0.628535
thorax -3.57746 3.12047 -3.75105
lowerneck -15.4741 0.274098 -4.7804
upperneck 10.3109 0.333353 7.71539
head 5.6206 0.562654 3.26096
rclavicle -1.51387e-014 -3.97569e-015
rhumerus 64.7149 0.238474 -41.5811
rradius 82.9779
rwrist -7.20213
rhand -28.7895 14.2303
rfingers 7.12502
rthumb -2.14839 -15.7386
lclavicle -1.51387e-014 -3.97569e-015
lhumerus 46.3976 -20.8279 10.7474
lradius 96.7278
lwrist 0.479968
lhand -12.7974 7.12418
lfingers 7.12502
lthumb 13.2885 36.6805
rfemur 10.6526 11.5843 15.4177
rtibia 35.5939
rfoot -13.4343 3.96216
rtoes -17.3149
lfemur -33.9611 -10.5726 -4.90194
ltibia 40.5122
lfoot 11.7527 -0.880232
ltoes -10.6762
1973
root -1.66662 18.1139 4.92551 -183.24 203.122 -181.104
lowerback 10.9736 4.46525 3.72453
upperback 1.98547 6.31195 -0.62334
thorax -3.57301 3.08372 -3.58057
lowerneck -15.5991 0.252685 -4.83368
upperneck 10.4582 0.32148 7.65166
head 5.68819 0.55312 3.25195
rclavicle -7.62774e-014 -7.35503e-015
rhumerus 65.2312 0.0624907 -41.317
rradius 79.803
rwrist -5.98585
rhand -29.7022 14.8399
rfingers 7.12502
rthumb -3.02986 -15.1183
lclavicle -7.62774e-014 -7.35503e-015
lhumerus 45.4147 -19.3228 12.5485
lradius 99.3964
lwrist 1.90973
lhand -12.6169 7.54573
lfingers 7.12502
lthumb 13.4625 37.0907
rfemur 10.2066 12.0152 15.3029
rtibia 34.9455
rfoot -13.0601 3.70494
rtoes -16.7862
lfemur -33.9842 -10.1439 -4.79284
ltibia 40.167
lfoot 11.4025 -2.19241
ltoes -12.4208
1974
root -1.66352 18.1705 4.86896 -182.865 203.41 -181.273
lowerback 10.7965 4.53401 3.80083
upperback 1.93615 6.40323 -0.711661
thorax -3.50065 3.13001 -3.71042
lowerneck -15.687 0.187771 -4.77149
upperneck 10.5056 0.199381 7.80209
head 5.72637 0.509882 3.28081
rclavicle -2.60905e-016 8.24956e-015
rhumerus 65.2192 -0.18284 -40.5388
rradius 76.8221
rwrist -4.10816
rhand -30.4393 14.9686
rfingers 7.12502
rthumb -3.74172 -14.9783
lclavicle -2.60905e-016 8.24956e-015
lhumerus 45.1091 -17.4537 14.2904
lradius 101.785
lwrist 3.81532
lhand -12.2057 8.07907
lfingers 7.12502
lthumb 13.8588 37.5973
rfemur 9.87951 12.4893 15.4646
rtibia 34.4858
rfoot -13.3254 2.82223
rtoes -17.1691
lfemur -33.9425 -9.69357 -4.5108
ltibia 40.217
lfoot 10.6526 -3.50831
ltoes -12.3315
1975
root -1.66068 18.2148 4.8171 -182.566 203.647 -181.298
lowerback 10.5272 4.59643 3.68208
upperback 1.93871 6.45985 -0.796988
thorax -3.34787 3.16435 -3.71324
lowerneck -15.9432 0.0877012 -4.73101
upperneck 10.6252 0.0429287 7.90112
head 5.81764 0.449017 3.29646
rclavicle -8.52786e-014 -5.96354e-016
rhumerus 65.0056 -0.148674 -39.2783
rradius 74.3315
rwrist -1.91356
rhand -30.7856 14.9565
rfingers 7.12502
rthumb -4.07609 -14.9843
lclavicle -8.52786e-014 -5.96354e-016
lhumerus 45.0311 -15.3653 16.1581
lradius 103.539
lwrist 5.257
lhand -12.6071 8.22174
lfingers 7.12502
lthumb 13.4719 37.766
rfemur 9.61368 12.9067 15.5097
rtibia 34.2226
rfoot -14.1613 1.05959
rtoes -18.0623
lfemur -33.9615 -9.35997 -4.39377
ltibia 40.6372
lfoot 9.82161 -4.37479
ltoes -10.0543
